<svg id="Icon_ionic-ios-log-in" data-name="Icon ionic-ios-log-in" xmlns="http://www.w3.org/2000/svg" width="40.374" height="34.328" viewBox="0 0 40.374 34.328">
    <path id="Path_3" data-name="Path 3" d="M38.191,5.625H10.884A4.487,4.487,0,0,0,6.4,10.111a1.365,1.365,0,1,0,2.731,0,1.761,1.761,0,0,1,1.755-1.755H38.191a1.761,1.761,0,0,1,1.755,1.755V35.467a1.761,1.761,0,0,1-1.755,1.755H10.884a1.761,1.761,0,0,1-1.755-1.755,1.365,1.365,0,1,0-2.731,0,4.487,4.487,0,0,0,4.486,4.486H38.191a4.487,4.487,0,0,0,4.486-4.486V10.111A4.487,4.487,0,0,0,38.191,5.625Z" transform="translate(-2.302 -5.625)" fill="#707070"/>
    <path id="Path_4" data-name="Path 4" d="M20.512,28.407a1.377,1.377,0,0,0,0,1.931l.01.01a1.41,1.41,0,0,0,.956.38,1.318,1.318,0,0,0,.965-.4L30.5,22.292a1.916,1.916,0,0,0,0-2.848l-8.25-8.231a1.357,1.357,0,0,0-.965-.4,1.334,1.334,0,0,0-.965.4,1.36,1.36,0,0,0,0,1.931l6.358,6.261H4.811a1.365,1.365,0,1,0,0,2.731h21.9Z" transform="translate(-3.445 -3.617)" fill="#707070"/>
</svg>
